<svg width="1146" height="70" viewBox="0 0 1146 70" fill="none" xmlns="http://www.w3.org/2000/svg">
<g opacity="0.5" clip-path="url(#clip0_1_3474)">
<path d="M87.1525 37.884C84.3656 37.884 82.3888 40.1292 82.3888 43.5758V56.2184H78.1346V33.9653H82.3379V36.6826C82.8564 35.782 83.5993 35.0405 84.4898 34.5351C85.3802 34.0296 86.3858 33.7785 87.4022 33.8079H88.9306V37.884H87.1525ZM75.1949 45.0918C75.1949 38.4558 70.6096 33.4931 64.404 33.4931C62.9378 33.5034 61.488 33.812 60.1381 34.4013C58.7882 34.9907 57.5648 35.849 56.5382 36.9269C55.5116 38.0049 54.7022 39.2812 54.1565 40.6825C53.6108 42.0837 53.3395 43.5822 53.3584 45.0918C53.3584 51.7227 58.3259 56.7377 64.8065 56.7377C66.6168 56.7729 68.4088 56.3596 70.0314 55.5324C71.654 54.7052 73.0597 53.4886 74.1301 51.9849L71.0426 49.6558C70.3343 50.6737 69.397 51.4998 68.311 52.0635C67.225 52.6272 66.0226 52.9116 64.8065 52.8925C63.0746 52.8841 61.4028 52.2371 60.0943 51.0688C58.7858 49.9004 57.927 48.2881 57.6737 46.524H75.2051L75.1949 45.0918ZM57.7654 43.0512C58.5246 39.6571 61.1586 37.3594 64.3531 37.3594C67.5475 37.3594 70.1765 39.6571 70.8898 43.0512H57.7654ZM39.8825 33.4931C38.4608 33.4944 37.0534 33.7857 35.7417 34.3502C34.4299 34.9148 33.2399 35.7414 32.2402 36.7823V25.6558H27.986V56.2184H32.1893V53.3961C34.2255 55.5171 36.9963 56.719 39.8927 56.7377C41.3952 56.7706 42.8889 56.4943 44.2864 55.925C45.6838 55.3557 46.9567 54.5048 48.0306 53.4223C49.1045 52.3399 49.9577 51.0475 50.5402 49.6211C51.1227 48.1946 51.4227 46.6628 51.4227 45.1154C51.4227 43.568 51.1227 42.0362 50.5402 40.6098C49.9577 39.1834 49.1045 37.891 48.0306 36.8085C46.9567 35.726 45.6838 34.8752 44.2864 34.3059C42.8889 33.7366 41.3952 33.4603 39.8927 33.4931H39.8825ZM39.5768 52.8243C38.094 52.8316 36.6424 52.3851 35.4064 51.5416C34.1704 50.6981 33.2056 49.4956 32.6344 48.0866C32.0632 46.6775 31.9114 45.1256 32.1982 43.6276C32.485 42.1296 33.1975 40.7531 34.2453 39.6727C35.2932 38.5924 36.6291 37.8568 38.0835 37.5595C39.538 37.2621 41.0455 37.4163 42.4147 38.0025C43.7839 38.5887 44.9531 39.5805 45.774 40.852C46.5949 42.1235 47.0305 43.6175 47.0255 45.1443C47.0268 46.1514 46.835 47.1488 46.461 48.0793C46.087 49.0099 45.5383 49.8552 44.8462 50.5668C44.1541 51.2785 43.3324 51.8423 42.4281 52.2261C41.5238 52.6099 40.5549 52.8061 39.5768 52.8033V52.8243ZM12.3194 52.6145C16.4258 52.6145 19.6152 49.3725 19.6152 44.5148V25.6558H24.0222V56.2184H19.6661V53.3279C18.6484 54.4109 17.4279 55.2701 16.0784 55.8535C14.7289 56.4369 13.2785 56.7323 11.815 56.722C5.48206 56.722 0.606285 51.9692 0.606285 44.7613V25.6558H5.09485V44.541C5.09485 49.4249 8.15176 52.6145 12.3194 52.6145Z" fill="#60658C"/>
<path d="M99.5126 25.6558H120.335V30.9017H105.137V38.3508H119.912V43.4184H105.137V50.9935H120.335V56.2394H99.5126V25.6558ZM177.841 56.7902C184.225 56.7902 187.822 53.6426 187.822 49.32C187.822 46.2407 185.692 43.943 181.234 42.9463L176.521 41.9548C173.785 41.4302 172.924 40.9056 172.924 39.8564C172.924 38.4977 174.244 37.6636 176.674 37.6636C179.308 37.6636 181.259 38.3928 181.769 40.9004H187.292C186.991 36.179 183.695 33.063 177.01 33.063C171.233 33.063 167.177 35.5181 167.177 40.2761C167.177 43.5653 169.409 45.7056 174.224 46.7495L179.492 48.0033C181.57 48.423 182.126 49 182.126 49.8866C182.126 51.2977 180.556 52.1843 178.019 52.1843C174.83 52.1843 173.006 51.4551 172.298 48.9476H166.744C167.554 53.6584 170.948 56.7902 177.841 56.7902ZM165.139 56.2184H159.163C155.413 56.2184 153.335 53.8158 153.335 50.7836V38.7705H149.131V33.6505H153.355V27.2243H158.908V33.6505H165.139V38.7705H158.908V49.32C158.908 50.5213 159.718 51.0984 160.987 51.0984H165.139V56.2184ZM141.194 33.661V35.6964C139.238 33.9946 136.759 33.0648 134.198 33.0735C132.666 33.0403 131.142 33.3225 129.716 33.9035C128.291 34.4845 126.992 35.3527 125.897 36.4571C124.801 37.5616 123.931 38.88 123.337 40.3353C122.743 41.7905 122.437 43.3532 122.437 44.9318C122.437 46.5104 122.743 48.0731 123.337 49.5284C123.931 50.9836 124.801 52.3021 125.897 53.4065C126.992 54.511 128.291 55.3792 129.716 55.9602C131.142 56.5412 132.666 56.8234 134.198 56.7902C136.759 56.8016 139.24 55.8715 141.194 54.1672V56.2079H146.732V33.6505L141.194 33.661ZM134.657 51.8381C133.328 51.8537 132.025 51.4622 130.914 50.7136C129.802 49.9649 128.931 48.8927 128.412 47.6334C127.894 46.374 127.75 44.9843 128.001 43.6408C128.251 42.2974 128.883 41.0609 129.818 40.0885C130.752 39.116 131.946 38.4516 133.248 38.1796C134.55 37.9075 135.901 38.0402 137.13 38.5608C138.359 39.0813 139.409 39.9662 140.148 41.1029C140.887 42.2397 141.281 43.577 141.28 44.9449C141.288 45.8467 141.123 46.7411 140.793 47.5765C140.463 48.4119 139.975 49.1716 139.358 49.8117C138.742 50.4517 138.007 50.9595 137.199 51.3055C136.39 51.6516 135.523 51.829 134.647 51.8276L134.657 51.8381Z" fill="#60658C"/>
</g>
<g clip-path="url(#clip1_1_3474)">
<path d="M402.049 54.8425L404.228 46.9055C406.582 49.6614 409.71 51.0945 412.802 51.0945C415.086 51.0945 416.527 49.7165 416.527 47.622C416.492 41.7795 402.857 46.3543 402.752 31.6929C402.717 24.2519 406.934 18.5197 412.908 18.5197C416.457 18.5197 420.006 19.8976 422.536 23.0393L420.498 31.1417C418.179 28.8267 415.297 27.1732 412.556 27.1732C410.694 27.1732 409.464 28.5512 409.464 30.3149C409.499 36.0472 423.239 32.9055 423.38 46.9055C423.38 54.5118 419.268 59.8582 413.364 59.8582C409.042 59.8582 405.071 58.2598 402.049 54.8425ZM485.649 44.0394C484.559 47.0157 482.521 49.0551 480.167 49.0551C476.688 49.0551 473.877 44.6456 473.877 39.189C473.877 33.7323 476.688 29.3228 480.167 29.3228C482.521 29.3228 484.559 31.3622 485.649 34.3386L491.658 29.1023C489.409 22.8189 485.086 18.5197 480.167 18.5197C472.893 18.5197 466.989 27.7795 466.989 39.189C466.989 50.5984 472.893 59.8582 480.167 59.8582C485.121 59.8582 489.409 55.6142 491.658 49.2756L485.649 44.0394ZM426.402 1.37793H433.922V59.0866H426.402V1.37793ZM494.609 1.37793V59.0866H502.13V41.7795L511.055 59.0866H520.684L509.333 38.5275L519.84 19.3464H510.634L502.13 35.2756V1.37793H494.609ZM456.271 44.1496C455.182 46.9606 452.933 49.0551 450.403 49.0551C446.924 49.0551 444.112 44.6456 444.112 39.189C444.112 33.7323 446.924 29.3228 450.403 29.3228C452.933 29.3228 455.182 31.5275 456.271 34.3937V44.1496ZM456.271 19.3464V24.0315C455.041 20.7795 451.984 18.5197 448.786 18.5197C442.18 18.5197 436.979 27.6693 436.979 39.1338C436.979 50.5984 442.18 59.8582 448.786 59.8582C451.984 59.8582 455.041 57.5984 456.271 54.3464V59.0315H463.791V19.3464H456.271Z" fill="#303E49"/>
<path d="M355.558 44.0945C355.558 48.1181 353.485 51.3701 350.92 51.3701C348.354 51.3701 346.281 48.1181 346.281 44.0945C346.281 40.0709 348.354 36.8189 350.92 36.8189H355.558V44.0945ZM357.878 44.0945C357.878 40.0709 359.951 36.8189 362.516 36.8189C365.081 36.8189 367.155 40.0709 367.155 44.0945V62.2835C367.155 66.3071 365.081 69.5591 362.516 69.5591C359.951 69.5591 357.878 66.3071 357.878 62.2835V44.0945Z" fill="#303E49"/>
<path d="M362.516 14.8819C359.951 14.8819 357.878 11.6299 357.878 7.60628C357.878 3.58266 359.951 0.330688 362.516 0.330688C365.081 0.330688 367.155 3.58266 367.155 7.60628V14.8819H362.516ZM362.516 18.5748C365.081 18.5748 367.155 21.8268 367.155 25.8504C367.155 29.874 365.081 33.126 362.516 33.126H350.885C348.319 33.126 346.246 29.874 346.246 25.8504C346.246 21.8268 348.319 18.5748 350.885 18.5748H362.516Z" fill="#303E49"/>
<path d="M381.105 25.8504C381.105 21.8268 383.179 18.5748 385.744 18.5748C388.309 18.5748 390.383 21.8268 390.383 25.8504C390.383 29.874 388.309 33.126 385.744 33.126H381.105V25.8504ZM378.786 25.8504C378.786 29.874 376.713 33.126 374.148 33.126C371.582 33.126 369.509 29.874 369.509 25.8504V7.60628C369.509 3.58266 371.582 0.330688 374.148 0.330688C376.713 0.330688 378.786 3.58266 378.786 7.60628V25.8504Z" fill="#303E49"/>
<path d="M374.148 55.0079C376.713 55.0079 378.786 58.2598 378.786 62.2835C378.786 66.3071 376.713 69.5591 374.148 69.5591C371.582 69.5591 369.509 66.3071 369.509 62.2835V55.0079H374.148ZM374.148 51.3701C371.582 51.3701 369.509 48.1181 369.509 44.0945C369.509 40.0709 371.582 36.8189 374.148 36.8189H385.779C388.344 36.8189 390.418 40.0709 390.418 44.0945C390.418 48.1181 388.344 51.3701 385.779 51.3701H374.148Z" fill="#303E49"/>
</g>
<g opacity="0.5" clip-path="url(#clip2_1_3474)">
<path d="M740.772 46.5029L739.729 49.4548H739.642C739.468 48.7892 739.149 47.7763 738.628 46.5607L733.036 32.5246H727.56V54.8956H731.181V41.091C731.181 40.2228 731.181 39.2388 731.152 38.0233C731.123 37.4155 731.065 36.9525 731.036 36.6052H731.123C731.297 37.4734 731.5 38.1101 731.645 38.5153L738.367 54.8377H740.916L747.58 38.3706C747.725 37.9943 747.87 37.2419 748.015 36.6052H748.102C748.015 38.2548 747.957 39.7308 747.928 40.6279V54.8088H751.781V32.4667H746.508L740.772 46.5029ZM755.432 38.7757H759.199V54.8088H755.432V38.7757ZM757.344 32.0036C756.707 32.0036 756.185 32.2352 755.751 32.6403C755.316 33.0455 755.084 33.5664 755.084 34.2031C755.084 34.8109 755.316 35.3318 755.751 35.737C756.185 36.1421 756.707 36.3447 757.344 36.3447C757.982 36.3447 758.532 36.1132 758.938 35.737C759.373 35.3318 759.604 34.8109 759.604 34.2031C759.604 33.5954 759.373 33.0744 758.938 32.6403C758.561 32.2352 758.011 32.0036 757.344 32.0036ZM772.555 38.631C771.86 38.4863 771.136 38.3995 770.44 38.3995C768.731 38.3995 767.166 38.7757 765.863 39.5282C764.559 40.2806 763.516 41.3225 762.849 42.6248C762.154 43.9561 761.806 45.4899 761.806 47.2553C761.806 48.7892 762.154 50.1494 762.82 51.3938C763.487 52.6093 764.414 53.5933 765.66 54.2589C766.848 54.9246 768.238 55.2719 769.803 55.2719C771.599 55.2719 773.135 54.8956 774.352 54.2011L774.381 54.1721V50.6992L774.236 50.815C773.685 51.2202 773.048 51.5675 772.411 51.77C771.744 52.0016 771.136 52.1173 770.614 52.1173C769.108 52.1173 767.92 51.6832 767.079 50.7282C766.21 49.8021 765.776 48.5287 765.776 46.937C765.776 45.2874 766.21 43.985 767.108 43.03C768.007 42.075 769.195 41.583 770.643 41.583C771.86 41.583 773.106 41.9881 774.236 42.7985L774.381 42.9142V39.2388L774.352 39.2098C773.859 39.0073 773.309 38.7757 772.555 38.631ZM784.985 38.5153C784.058 38.5153 783.189 38.8047 782.435 39.4124C781.798 39.9334 781.363 40.6858 780.987 41.583H780.958V38.7757H777.191V54.8088H780.958V46.6186C780.958 45.2295 781.248 44.0719 781.885 43.2326C782.522 42.3644 783.334 41.9303 784.319 41.9303C784.666 41.9303 785.014 42.0171 785.449 42.075C785.854 42.1907 786.144 42.3065 786.347 42.4512L786.492 42.5669V38.8047L786.405 38.7757C786.144 38.6021 785.623 38.5153 784.985 38.5153ZM795.242 38.4284C792.605 38.4284 790.49 39.2098 789.012 40.7437C787.506 42.2775 786.781 44.3902 786.781 47.0527C786.781 49.5416 787.535 51.5675 788.983 53.0434C790.432 54.4905 792.402 55.2429 794.865 55.2429C797.444 55.2429 799.501 54.4615 800.979 52.8987C802.485 51.3359 803.209 49.2522 803.209 46.6765C803.209 44.1297 802.514 42.1039 801.094 40.6279C799.733 39.152 797.733 38.4284 795.242 38.4284ZM798.255 50.7571C797.56 51.6543 796.459 52.0884 795.097 52.0884C793.735 52.0884 792.634 51.6543 791.852 50.6992C791.07 49.8021 790.693 48.4998 790.693 46.8502C790.693 45.1427 791.099 43.8403 791.852 42.9142C792.634 41.9881 793.706 41.5251 795.068 41.5251C796.401 41.5251 797.444 41.9592 798.197 42.8564C798.95 43.7535 799.356 45.0558 799.356 46.7633C799.298 48.4998 798.979 49.86 798.255 50.7571ZM811.612 45.4321C810.424 44.9401 809.671 44.5638 809.323 44.2455C809.033 43.9561 808.888 43.5509 808.888 43.03C808.888 42.5959 809.062 42.1618 809.497 41.8724C809.931 41.583 810.424 41.4383 811.148 41.4383C811.786 41.4383 812.452 41.554 813.089 41.7277C813.727 41.9013 814.306 42.1618 814.77 42.5091L814.915 42.6248V39.0941L814.828 39.0651C814.393 38.8915 813.814 38.7179 813.118 38.5732C812.423 38.4574 811.786 38.3995 811.264 38.3995C809.468 38.3995 807.99 38.8336 806.831 39.7887C805.672 40.6858 805.122 41.9013 805.122 43.3194C805.122 44.0719 805.238 44.7375 805.498 45.2874C805.759 45.8372 806.136 46.3582 806.657 46.7923C807.179 47.1974 807.932 47.6605 808.975 48.0946C809.844 48.4708 810.511 48.7602 810.916 48.9918C811.322 49.2233 811.583 49.4837 811.786 49.6863C811.93 49.9179 812.017 50.2073 812.017 50.5835C812.017 51.6543 811.206 52.1752 809.555 52.1752C808.917 52.1752 808.251 52.0595 807.469 51.799C806.686 51.5385 805.962 51.1623 805.354 50.7282L805.209 50.6124V54.2879L805.296 54.3168C805.846 54.5773 806.512 54.7509 807.324 54.9535C808.135 55.0982 808.859 55.214 809.497 55.214C811.438 55.214 813.031 54.7799 814.161 53.8248C815.32 52.8987 815.929 51.7122 815.929 50.1783C815.929 49.1075 815.639 48.1525 815.002 47.429C814.161 46.7344 813.118 46.0109 811.612 45.4321ZM825.867 38.4284C823.23 38.4284 821.115 39.2098 819.637 40.7437C818.16 42.2775 817.406 44.3902 817.406 47.0527C817.406 49.5416 818.16 51.5675 819.608 53.0434C821.057 54.4905 823.027 55.2429 825.49 55.2429C828.069 55.2429 830.126 54.4615 831.604 52.8987C833.11 51.3359 833.834 49.2522 833.834 46.6765C833.834 44.1297 833.139 42.1039 831.719 40.6279C830.358 39.152 828.358 38.4284 825.867 38.4284ZM828.851 50.7571C828.156 51.6543 827.055 52.0884 825.693 52.0884C824.302 52.0884 823.23 51.6543 822.448 50.6992C821.666 49.8021 821.289 48.4998 821.289 46.8502C821.289 45.1427 821.695 43.8403 822.448 42.9142C823.23 41.9881 824.302 41.5251 825.664 41.5251C826.968 41.5251 828.04 41.9592 828.793 42.8564C829.546 43.7535 829.952 45.0558 829.952 46.7633C829.952 48.4998 829.575 49.86 828.851 50.7571ZM853.971 41.8724V38.7757H850.176V34.0295L850.06 34.0584L846.467 35.1292L846.38 35.1582V38.7757H840.701V36.7499C840.701 35.8238 840.933 35.1003 841.339 34.6372C841.744 34.1742 842.353 33.9427 843.106 33.9427C843.628 33.9427 844.178 34.0584 844.786 34.3189L844.931 34.4057V31.1354L844.844 31.1065C844.323 30.9328 843.628 30.8171 842.729 30.8171C841.599 30.8171 840.614 31.0775 839.716 31.5117C838.818 32.0036 838.152 32.6693 837.659 33.5664C837.166 34.4346 836.906 35.4186 836.906 36.5473V38.7757H834.269V41.8434H836.906V54.8088H840.701V41.8724H846.38V50.1204C846.38 53.5065 847.974 55.214 851.161 55.214C851.682 55.214 852.233 55.1272 852.754 55.0403C853.305 54.9246 853.71 54.7799 853.942 54.6641L853.971 54.6352V51.5385L853.826 51.6543C853.594 51.799 853.392 51.9148 853.044 52.0016C852.754 52.0884 852.493 52.1173 852.291 52.1173C851.537 52.1173 851.016 51.9437 850.639 51.5096C850.291 51.1044 850.118 50.4388 850.118 49.4548V41.8724H853.971Z" fill="#60658C"/>
<path d="M679 25H696.761V42.7406H679V25Z" fill="#60658C"/>
<path d="M698.615 25H716.376V42.7406H698.615V25Z" fill="#60658C"/>
<path d="M679 44.5928H696.761V62.3333H679V44.5928Z" fill="#60658C"/>
<path d="M698.615 44.5928H716.376V62.3333H698.615V44.5928Z" fill="#60658C"/>
</g>
<g clip-path="url(#clip3_1_3474)">
<path d="M1134.67 0.110107C1141.2 0.110107 1145.84 5.01944 1145.84 11.0356C1145.84 17.0518 1141.2 21.9611 1134.67 21.9611C1128.08 21.9611 1123.52 17.0518 1123.52 11.0356C1123.52 5.01944 1128.08 0.110107 1134.67 0.110107Z" fill="#B0B2C6"/>
<path d="M1012.18 29.6405H1016.12V50.1198H1012.18V29.6405ZM1040.07 47.3765C1038.64 48.8642 1036.41 50.5274 1031.92 50.5274C1025.88 50.5274 1021.21 45.9484 1021.21 39.8221C1021.21 33.3745 1026.4 29.2299 1032.1 29.2299C1036.1 29.2299 1038.73 31.1281 1040.01 32.2945L1037.61 35.1538C1036.77 34.3088 1034.87 32.7616 1032.15 32.7616C1028.33 32.7616 1025.44 35.9095 1025.44 39.8221C1025.44 43.6127 1028.09 46.9392 1032.3 46.9392C1034.63 46.9392 1036.62 45.8026 1037.73 44.7523L1040.07 47.3765ZM1058.15 32.9669H1053.04V50.1198H1049.1V32.9669H1043.99V29.6405H1058.15V32.9669ZM1083.54 40.4053H1076.33V50.1198H1072.38V29.6405H1076.33V37.0788H1083.54V29.6405H1087.48V50.1198H1083.54V40.4053ZM1093.59 29.6405H1097.54V42.7409C1097.54 45.2194 1099.26 47.0582 1101.48 47.0582C1103.7 47.0582 1105.45 45.2194 1105.45 42.7409V29.6405H1109.42V42.9135C1109.42 46.9392 1106.74 50.5274 1101.45 50.5274C1096.2 50.5274 1093.6 46.9392 1093.6 42.9135V29.6405H1093.59ZM1115.5 29.816C1116.88 29.581 1118.45 29.3786 1120 29.3786C1123.97 29.3786 1127.82 30.5747 1127.82 34.9515C1127.82 36.8765 1126.63 38.3374 1125.95 38.8045C1127.5 39.2389 1129.54 41.0509 1129.54 44.0233C1129.54 44.666 1129.46 45.3087 1129.19 45.8621C1128.46 48.9237 1125.37 50.4144 1120.11 50.4144C1118.71 50.4144 1117.19 50.2954 1115.5 50.093V29.816H1115.5ZM1119.47 37.662H1122.25C1123.09 37.4002 1123.91 36.5254 1123.91 35.3264C1123.91 33.315 1122.31 32.7914 1120.84 32.7914C1120.35 32.7914 1119.85 32.8479 1119.47 32.9074V37.662H1119.47ZM1119.47 46.7339C1120 46.7636 1120.55 46.8231 1121.08 46.8231C1123.44 46.8231 1125.49 45.9781 1125.49 43.7317C1125.49 42.4464 1124.52 40.9885 1122.98 40.6969H1119.47V46.7339ZM1015.48 67.1805V67.9065H1012.16V62.1045H1015.37V62.8395H1013.03V64.2676H1014.91V65.0025H1013.03V67.1745H1015.48V67.1805ZM1017.33 67.9095V62.0837L1017.47 62.0421L1019.79 64.3301L1022.11 62.0421L1022.25 62.0837V67.9095H1021.39V63.8927L1019.83 65.4548H1019.74L1018.19 63.8927V67.9095H1017.33ZM1025.18 66.2224V67.9095H1024.31V62.1492C1026.45 61.6939 1027.89 62.5955 1027.89 64.0742C1027.89 65.4786 1026.67 66.3057 1025.18 66.2224ZM1025.18 65.4459C1026.37 65.5441 1027 64.9073 1027 64.0742C1027 63.3125 1026.34 62.6699 1025.18 62.8514V65.4459ZM1032.27 61.9915C1034.04 61.9915 1035.32 63.3304 1035.32 65.0144C1035.32 66.6925 1034.04 68.0225 1032.27 68.0225C1030.5 68.0225 1029.22 66.6925 1029.22 65.0144C1029.22 63.3304 1030.5 61.9915 1032.27 61.9915ZM1032.27 67.2489C1033.4 67.2489 1034.38 66.3563 1034.38 65.0174C1034.38 63.6785 1033.4 62.7621 1032.27 62.7621C1031.13 62.7621 1030.16 63.6785 1030.16 65.0174C1030.16 66.3563 1031.12 67.2489 1032.27 67.2489ZM1043.98 62.1075L1041.73 67.9749H1041.6L1040.06 63.9433L1038.52 67.9749H1038.4L1036.2 62.1075H1037.15L1038.51 65.9011L1040.01 62.0421H1040.14L1041.65 65.9517L1043.08 62.1105H1043.98V62.1075ZM1048.72 67.1805V67.9065H1045.4V62.1045H1048.61V62.8395H1046.27V64.2676H1048.15V65.0025H1046.27V67.1745H1048.72V67.1805ZM1053.16 65.669L1054.77 67.9095H1053.67L1052.36 65.9755C1052.08 66.032 1051.79 66.0499 1051.44 66.0171V67.9095H1050.57V62.1492C1052.83 61.7029 1054.11 62.5538 1054.11 63.9909C1054.11 64.6187 1053.8 65.2733 1053.16 65.669ZM1051.44 65.2406C1052.55 65.3655 1053.22 64.8121 1053.22 63.9998C1053.22 63.256 1052.61 62.6699 1051.44 62.8603V65.2406ZM1056.21 62.1075H1057.08V67.9095H1056.21V62.1075ZM1063.35 62.1075V67.9095H1062.5V65.4131L1059.98 63.619V67.9065H1059.14V62.0897L1059.25 62.0391L1062.5 64.3777V62.1045H1063.35V62.1075ZM1068.67 65.1989H1070.46V67.115C1069.71 67.841 1068.93 68.0225 1068.14 68.0225C1066.25 68.0225 1065.01 66.6687 1065.01 64.9996C1065.01 63.2382 1066.42 61.9915 1068.05 61.9915C1069.19 61.9915 1069.85 62.4527 1070.28 62.8424C1070.1 63.0477 1069.91 63.2471 1069.74 63.4524C1069.39 63.137 1068.88 62.7591 1068.08 62.7591C1066.9 62.7591 1065.96 63.735 1065.96 64.9817C1065.96 66.3028 1066.87 67.2549 1068.17 67.2549C1068.72 67.2549 1069.3 67.0317 1069.6 66.7848V65.916H1068.67V65.1989H1068.67ZM1074.99 62.1075H1075.86V67.9095H1074.99V62.1075ZM1082.13 62.1075V67.9095H1081.29V65.4131L1078.76 63.619V67.9065H1077.92V62.0897L1078.04 62.0391L1081.29 64.3777V62.1045H1082.13V62.1075ZM1088.4 62.1075V67.9095H1087.56V65.4131L1085.03 63.619V67.9065H1084.19V62.0897L1084.31 62.0391L1087.56 64.3777V62.1045H1088.4V62.1075ZM1093.11 61.9915C1094.87 61.9915 1096.16 63.3304 1096.16 65.0144C1096.16 66.6925 1094.88 68.0225 1093.11 68.0225C1091.34 68.0225 1090.06 66.6925 1090.06 65.0144C1090.06 63.3304 1091.33 61.9915 1093.11 61.9915ZM1093.11 67.2489C1094.24 67.2489 1095.22 66.3563 1095.22 65.0174C1095.22 63.6785 1094.24 62.7621 1093.11 62.7621C1091.97 62.7621 1091 63.6785 1091 65.0174C1091 66.3563 1091.97 67.2489 1093.11 67.2489ZM1102.27 62.1075L1099.7 67.9749H1099.59L1097.04 62.1075H1098.03L1099.66 66.0737L1101.35 62.1075H1102.27ZM1102.18 67.9095L1104.88 62.0421H1105L1107.67 67.9095H1106.71L1106.19 66.7282H1103.67L1103.15 67.9095H1102.18ZM1103.97 66.0082H1105.87L1104.93 63.8005L1103.97 66.0082ZM1112.02 62.8424H1110.52V67.9065H1109.65V62.8424H1108.17V62.1075H1112.02V62.8424H1112.02ZM1113.63 62.1075H1114.5V67.9095H1113.63V62.1075ZM1119.2 61.9915C1120.97 61.9915 1122.25 63.3304 1122.25 65.0144C1122.25 66.6925 1120.97 68.0225 1119.2 68.0225C1117.43 68.0225 1116.16 66.6925 1116.16 65.0144C1116.16 63.3304 1117.43 61.9915 1119.2 61.9915ZM1119.2 67.2489C1120.33 67.2489 1121.32 66.3563 1121.32 65.0174C1121.32 63.6785 1120.33 62.7621 1119.2 62.7621C1118.06 62.7621 1117.09 63.6785 1117.09 65.0174C1117.09 66.3563 1118.06 67.2489 1119.2 67.2489ZM1128.13 62.1075V67.9095H1127.29V65.4131L1124.77 63.619V67.9065H1123.92V62.0897L1124.04 62.0391L1127.29 64.3777V62.1045H1128.13V62.1075Z" fill="#B0B2C6"/>
</g>
<defs>
<clipPath id="clip0_1_3474">
<rect width="188" height="32" fill="white" transform="translate(0 25)"/>
</clipPath>
<clipPath id="clip1_1_3474">
<rect width="175" height="70" fill="white" transform="translate(346)"/>
</clipPath>
<clipPath id="clip2_1_3474">
<rect width="175" height="37.3333" fill="white" transform="translate(679 25)"/>
</clipPath>
<clipPath id="clip3_1_3474">
<rect width="134" height="68.1356" fill="white" transform="translate(1012)"/>
</clipPath>
</defs>
</svg>
