<svg width="98" height="17" viewBox="0 0 98 17" fill="none" xmlns="http://www.w3.org/2000/svg">
<path d="M0.736984 4.68V1.82H13.145V4.68H8.52498V17H5.35698V4.68H0.736984ZM14.2068 13.436V8.948C14.2068 6.572 15.3948 5.384 17.7708 5.384H20.6308C23.0068 5.384 24.1948 6.572 24.1948 8.948V12.314H17.2428V13.656C17.2428 14.1253 17.4775 14.36 17.9468 14.36H23.7548V16.01L22.4348 17H17.7708C15.3948 17 14.2068 15.812 14.2068 13.436ZM17.2428 9.982H21.1588V8.728C21.1588 8.25867 20.9242 8.024 20.4548 8.024H17.9468C17.4775 8.024 17.2428 8.25867 17.2428 8.728V9.982ZM27.0115 13.436V8.948C27.0115 6.572 28.1995 5.384 30.5755 5.384H34.6675L35.9875 6.374V8.024H30.7515C30.2822 8.024 30.0475 8.25867 30.0475 8.728V13.656C30.0475 14.1253 30.2822 14.36 30.7515 14.36H35.9875V16.01L34.6675 17H30.5755C28.1995 17 27.0115 15.812 27.0115 13.436ZM38.5742 17V0.72H41.6102V5.384H44.9982C47.3742 5.384 48.5622 6.572 48.5622 8.948V17H45.5262V8.728C45.5262 8.25867 45.2916 8.024 44.8222 8.024H41.6102V17H38.5742ZM49.6999 4.68V1.82H62.1079V4.68H57.4879V17H54.3199V4.68H49.6999ZM66.0789 17C63.7029 17 62.5149 15.834 62.5149 13.502C62.5149 11.17 63.7029 10.004 66.0789 10.004H69.1149V8.728C69.1149 8.25867 68.8802 8.024 68.4109 8.024H63.7469V6.374L65.0669 5.384H68.5869C70.9629 5.384 72.1509 6.572 72.1509 8.948V17H66.0789ZM65.5509 13.656C65.5509 14.1253 65.7855 14.36 66.2549 14.36H69.1149V12.336H66.2549C65.7855 12.336 65.5509 12.5707 65.5509 13.04V13.656ZM75.0506 13.436V8.948C75.0506 6.572 76.2386 5.384 78.6146 5.384H82.7066L84.0266 6.374V8.024H78.7906C78.3212 8.024 78.0866 8.25867 78.0866 8.728V13.656C78.0866 14.1253 78.3212 14.36 78.7906 14.36H84.0266V16.01L82.7066 17H78.6146C76.2386 17 75.0506 15.812 75.0506 13.436ZM86.6133 17V0.72H89.6493V9.762L93.6753 5.384H96.6673L96.9093 5.89L92.8833 10.224L97.2173 16.494L96.9753 17H94.0053L90.8813 12.402L89.6493 13.744V17H86.6133Z" fill="black"/>
</svg>
