<svg width="44" height="40" viewBox="0 0 44 40" fill="none" xmlns="http://www.w3.org/2000/svg">
<path d="M42 13.1801C42 17.1201 40.98 20.6 39.38 23.62C37.62 21.76 35.14 20.6001 32.4 20.6001C27.1 20.6001 22.8 24.9001 22.8 30.2001C22.8 32.6601 23.74 34.9001 25.26 36.6001C24.52 36.9401 23.84 37.22 23.24 37.42C22.56 37.66 21.44 37.66 20.76 37.42C14.96 35.44 2 27.1801 2 13.1801C2 7.00005 6.98 2 13.12 2C16.74 2 19.98 3.76008 22 6.46008C24.02 3.76008 27.26 2 30.88 2C37.02 2 42 7.00005 42 13.1801Z" stroke="white" stroke-width="3" stroke-linecap="round" stroke-linejoin="round"/>
</svg>
