<svg width="40" height="36" viewBox="0 0 40 36" fill="none" xmlns="http://www.w3.org/2000/svg">
<path fill-rule="evenodd" clip-rule="evenodd" d="M3.75003 2.375C3.75003 1.87772 3.55249 1.40081 3.20086 1.04917C2.84923 0.697544 2.37231 0.5 1.87503 0.5C1.37775 0.5 0.900836 0.697544 0.549205 1.04917C0.197575 1.40081 3.05176e-05 1.87772 3.05176e-05 2.375V33.625C3.05176e-05 34.66 0.840031 35.5 1.87503 35.5H38.125C38.6223 35.5 39.0992 35.3025 39.4509 34.9508C39.8025 34.5992 40 34.1223 40 33.625C40 33.1277 39.8025 32.6508 39.4509 32.2992C39.0992 31.9475 38.6223 31.75 38.125 31.75H3.75003V2.375ZM39.45 8.7C39.7812 8.34456 39.9615 7.87445 39.953 7.38869C39.9444 6.90294 39.7476 6.43948 39.4041 6.09595C39.0606 5.75241 38.5971 5.55563 38.1113 5.54706C37.6256 5.53849 37.1555 5.7188 36.8 6.05L25 17.85L18.825 11.675C18.4735 11.3239 17.9969 11.1266 17.5 11.1266C17.0032 11.1266 16.5266 11.3239 16.175 11.675L8.05003 19.8C7.71883 20.1554 7.53852 20.6256 7.54709 21.1113C7.55566 21.5971 7.75244 22.0605 8.09598 22.4041C8.43951 22.7476 8.90297 22.9444 9.38872 22.9529C9.87448 22.9615 10.3446 22.7812 10.7 22.45L17.5 15.65L23.675 21.825C24.0266 22.1761 24.5032 22.3734 25 22.3734C25.4969 22.3734 25.9735 22.1761 26.325 21.825L39.45 8.7Z" fill="#303E49"/>
</svg>
