<svg width="578" height="289" viewBox="0 0 578 289" fill="none" xmlns="http://www.w3.org/2000/svg">
<path d="M0.784 8.064L2.416 5.75999H12.016L23.824 61.344H24.88L37.456 12.48H49.072L61.552 61.344H62.704L74.512 5.75999H84.112L85.744 8.064L72.016 72H53.104L43.216 33.024L33.424 72H14.608L0.784 8.064ZM94.6555 56.832V36.768C94.6555 26.656 99.7115 21.6 109.824 21.6H123.264C133.312 21.6 138.336 26.656 138.336 36.768V56.832C138.336 66.944 133.312 72 123.264 72H109.824C99.7115 72 94.6555 66.944 94.6555 56.832ZM105.888 57.792C105.888 60.736 107.36 62.208 110.304 62.208H122.688C125.632 62.208 127.104 60.736 127.104 57.792V35.808C127.104 32.864 125.632 31.392 122.688 31.392H110.304C107.36 31.392 105.888 32.864 105.888 35.808V57.792ZM153.107 72V27.84C155.411 23.68 159.827 21.6 166.355 21.6H176.435L181.523 25.344V31.392H168.947C166.771 31.392 165.235 31.936 164.339 33.024V72H153.107ZM191.946 56.832V36.768C191.946 26.656 197.002 21.6 207.114 21.6H223.434V0.959999H234.666V72H207.114C197.002 72 191.946 66.944 191.946 56.832ZM203.178 57.792C203.178 60.736 204.65 62.208 207.594 62.208H223.434V31.392H207.594C204.65 31.392 203.178 32.864 203.178 35.808V57.792ZM251.554 72V5.75999H283.426C293.858 5.75999 299.074 10.976 299.074 21.408V34.176C299.074 44.544 293.858 49.728 283.426 49.728H263.266V72H251.554ZM263.266 39.072H283.138C285.954 39.072 287.362 37.664 287.362 34.848V20.544C287.362 17.792 285.954 16.416 283.138 16.416H263.266V39.072ZM312.683 72V27.84C314.987 23.68 319.403 21.6 325.931 21.6H336.011L341.099 25.344V31.392H328.523C326.347 31.392 324.811 31.936 323.915 33.024V72H312.683ZM351.523 56.832V36.768C351.523 26.656 356.579 21.6 366.691 21.6H379.171C389.219 21.6 394.243 26.656 394.243 36.768V50.976H362.755V57.792C362.755 60.736 364.227 62.208 367.171 62.208H392.323V68.256L387.235 72H366.691C356.579 72 351.523 66.944 351.523 56.832ZM362.755 42.24H383.011V35.808C383.011 32.864 381.539 31.392 378.595 31.392H367.171C364.227 31.392 362.755 32.864 362.755 35.808V42.24ZM407.597 68.256V62.208H429.773C432.717 62.208 434.189 60.64 434.189 57.504C434.189 54.24 432.973 52.384 430.541 51.936L419.789 50.208C411.661 48.8 407.597 44.192 407.597 36.384C407.597 26.528 412.653 21.6 422.765 21.6H438.029L443.117 25.344V31.392H423.245C420.237 31.392 418.733 32.96 418.733 36.096C418.733 39.232 420.013 41.024 422.573 41.472L433.325 43.2C441.389 44.544 445.421 49.184 445.421 57.12C445.421 67.04 440.333 72 430.157 72H412.685L407.597 68.256ZM457.601 68.256V62.208H479.777C482.721 62.208 484.193 60.64 484.193 57.504C484.193 54.24 482.977 52.384 480.545 51.936L469.793 50.208C461.665 48.8 457.601 44.192 457.601 36.384C457.601 26.528 462.657 21.6 472.769 21.6H488.033L493.121 25.344V31.392H473.249C470.241 31.392 468.737 32.96 468.737 36.096C468.737 39.232 470.017 41.024 472.577 41.472L483.329 43.2C491.393 44.544 495.425 49.184 495.425 57.12C495.425 67.04 490.337 72 480.161 72H462.689L457.601 68.256Z" fill="#282A2C"/>
<path d="M150.871 175.584V169.344H180.535C183.351 169.344 184.759 167.968 184.759 165.216V157.92C184.759 155.488 183.671 154.048 181.495 153.6L162.007 149.664C154.583 148.192 150.871 143.2 150.871 134.688V129.408C150.871 118.976 156.087 113.76 166.519 113.76H188.887L194.551 118.176V124.416H166.807C163.991 124.416 162.583 125.792 162.583 128.544V134.976C162.583 137.408 163.671 138.848 165.847 139.296L185.335 143.136C192.759 144.672 196.471 149.664 196.471 158.112V164.352C196.471 174.784 191.255 180 180.823 180H156.535L150.871 175.584ZM209.715 164.832V144.768C209.715 134.656 214.771 129.6 224.883 129.6H238.323C248.371 129.6 253.395 134.656 253.395 144.768V164.832C253.395 174.944 248.371 180 238.323 180H224.883C214.771 180 209.715 174.944 209.715 164.832ZM220.947 165.792C220.947 168.736 222.419 170.208 225.363 170.208H237.747C240.691 170.208 242.163 168.736 242.163 165.792V143.808C242.163 140.864 240.691 139.392 237.747 139.392H225.363C222.419 139.392 220.947 140.864 220.947 143.808V165.792ZM268.166 163.296V108.96H279.398V164.448C279.398 168.608 281.51 170.848 285.734 171.168V180.864C274.022 180.864 268.166 175.008 268.166 163.296ZM297.734 164.832V129.6H308.966V165.792C308.966 168.736 310.438 170.208 313.382 170.208H329.222V129.6H340.454V180H312.902C302.79 180 297.734 174.944 297.734 164.832ZM355.988 164.832V113.76H367.22V129.6H384.404V139.392H367.22V165.792C367.22 168.736 368.692 170.208 371.636 170.208H385.364V176.256L380.276 180H371.156C361.044 180 355.988 174.944 355.988 164.832ZM397.277 120.864V109.44H409.085V120.864H397.277ZM397.565 180V129.6H408.797V180H397.565ZM423.927 164.832V144.768C423.927 134.656 428.983 129.6 439.095 129.6H452.535C462.583 129.6 467.607 134.656 467.607 144.768V164.832C467.607 174.944 462.583 180 452.535 180H439.095C428.983 180 423.927 174.944 423.927 164.832ZM435.159 165.792C435.159 168.736 436.631 170.208 439.575 170.208H451.959C454.903 170.208 456.375 168.736 456.375 165.792V143.808C456.375 140.864 454.903 139.392 451.959 139.392H439.575C436.631 139.392 435.159 140.864 435.159 143.808V165.792ZM482.762 180V129.6H510.41C520.458 129.6 525.482 134.656 525.482 144.768V180H514.25V143.808C514.25 140.864 512.778 139.392 509.834 139.392H493.994V180H482.762ZM539.193 176.256V170.208H561.369C564.313 170.208 565.785 168.64 565.785 165.504C565.785 162.24 564.569 160.384 562.137 159.936L551.385 158.208C543.257 156.8 539.193 152.192 539.193 144.384C539.193 134.528 544.249 129.6 554.361 129.6H569.625L574.713 133.344V139.392H554.841C551.833 139.392 550.329 140.96 550.329 144.096C550.329 147.232 551.609 149.024 554.169 149.472L564.921 151.2C572.985 152.544 577.017 157.184 577.017 165.12C577.017 175.04 571.929 180 561.753 180H544.281L539.193 176.256Z" fill="#282A2C"/>
<path d="M6.16 288V221.76H31.6C48.88 221.76 57.52 230.432 57.52 247.776V261.984C57.52 279.328 48.88 288 31.6 288H6.16ZM17.872 277.344H32.272C41.296 277.344 45.808 272.832 45.808 263.808V245.952C45.808 236.928 41.296 232.416 32.272 232.416H17.872V277.344ZM71.6868 272.832V252.768C71.6868 242.656 76.7428 237.6 86.8548 237.6H99.3348C109.383 237.6 114.407 242.656 114.407 252.768V266.976H82.9188V273.792C82.9188 276.736 84.3908 278.208 87.3348 278.208H112.487V284.256L107.399 288H86.8548C76.7428 288 71.6868 282.944 71.6868 272.832ZM82.9188 258.24H103.175V251.808C103.175 248.864 101.703 247.392 98.7588 247.392H87.3348C84.3908 247.392 82.9188 248.864 82.9188 251.808V258.24ZM129.2 271.296V216.96H140.432V272.448C140.432 276.608 142.544 278.848 146.768 279.168V288.864C135.056 288.864 129.2 283.008 129.2 271.296ZM158.864 228.864V217.44H170.672V228.864H158.864ZM159.152 288V237.6H170.384V288H159.152ZM180.905 239.328L182.057 237.6H191.753L204.425 278.208H205.865L218.537 237.6H228.233L229.386 239.328L213.641 288H196.745L180.905 239.328ZM239.174 272.832V252.768C239.174 242.656 244.23 237.6 254.342 237.6H266.822C276.87 237.6 281.894 242.656 281.894 252.768V266.976H250.406V273.792C250.406 276.736 251.878 278.208 254.822 278.208H279.974V284.256L274.886 288H254.342C244.23 288 239.174 282.944 239.174 272.832ZM250.406 258.24H270.662V251.808C270.662 248.864 269.19 247.392 266.246 247.392H254.822C251.878 247.392 250.406 248.864 250.406 251.808V258.24ZM296.688 288V243.84C298.992 239.68 303.408 237.6 309.936 237.6H320.016L325.104 241.344V247.392H312.528C310.352 247.392 308.816 247.936 307.92 249.024V288H296.688ZM335.528 272.832V252.768C335.528 242.656 340.584 237.6 350.696 237.6H363.176C373.224 237.6 378.248 242.656 378.248 252.768V266.976H346.76V273.792C346.76 276.736 348.232 278.208 351.176 278.208H376.328V284.256L371.24 288H350.696C340.584 288 335.528 282.944 335.528 272.832ZM346.76 258.24H367.016V251.808C367.016 248.864 365.544 247.392 362.6 247.392H351.176C348.232 247.392 346.76 248.864 346.76 251.808V258.24ZM392.657 272.832V252.768C392.657 242.656 397.713 237.6 407.825 237.6H424.145V216.96H435.377V288H407.825C397.713 288 392.657 282.944 392.657 272.832ZM403.889 273.792C403.889 276.736 405.361 278.208 408.305 278.208H424.145V247.392H408.305C405.361 247.392 403.889 248.864 403.889 251.808V273.792ZM450.345 288V274.272H464.649V288H450.345ZM450.537 266.688V221.76H464.361V266.688H450.537Z" fill="#3A78F2"/>
</svg>
